 <svg  version="1.0" xmlns="http://www.w3.org/2000/svg"  width="900.000000pt" height="900.000000pt" viewBox="0 0 900.000000 900.000000"  preserveAspectRatio="xMidYMid meet">  <g transform="translate(0.000000,900.000000) scale(0.100000,-0.100000)" fill="#ffffff" stroke="none"> <path d="M4480 8986 c0 -8 -8 -17 -17 -21 -10 -5 -122 -11 -250 -14 -165 -4 -236 -10 -245 -18 -7 -8 -41 -13 -87 -13 -47 -1 -86 -6 -101 -15 -14 -8 -52 -15 -85 -15 -36 0 -68 -6 -79 -15 -11 -8 -39 -15 -62 -15 -25 0 -47 -6 -54 -15 -8 -9 -30 -15 -60 -15 -30 0 -52 -6 -60 -15 -7 -8 -29 -15 -50 -15 -21 0 -43 -7 -50 -15 -7 -9 -29 -15 -51 -15 -20 0 -44 -7 -53 -15 -8 -8 -28 -15 -44 -15 -16 0 -35 -7 -42 -15 -7 -8 -24 -15 -39 -15 -14 0 -35 -7 -45 -15 -11 -8 -30 -15 -42 -15 -13 0 -25 -4 -28 -9 -3 -5 -44 -20 -91 -35 -47 -15 -85 -31 -85 -36 0 -6 -10 -10 -22 -10 -13 0 -35 -6 -49 -14 -14 -7 -37 -16 -52 -20 -15 -3 -27 -11 -27 -16 0 -6 -11 -10 -25 -10 -13 0 -28 -6 -32 -12 -4 -7 -26 -21 -48 -32 -22 -10 -47 -22 -55 -27 -8 -5 -25 -13 -37 -18 -11 -6 -24 -15 -28 -20 -3 -6 -15 -11 -26 -11 -11 0 -22 -7 -25 -15 -4 -8 -14 -15 -23 -15 -9 0 -22 -5 -28 -11 -13 -13 -47 -33 -80 -48 -13 -6 -23 -15 -23 -21 0 -5 -5 -10 -11 -10 -6 0 -28 -13 -49 -30 -21 -16 -41 -30 -45 -30 -3 0 -26 -13 -50 -30 -24 -16 -47 -30 -50 -30 -4 0 -24 -13 -45 -30 -21 -16 -41 -30 -45 -30 -10 0 -115 -83 -170 -135 -27 -26 -90 -81 -140 -122 -49 -42 -108 -93 -130 -113 -22 -21 -66 -61 -97 -90 -32 -29 -58 -57 -58 -61 0 -4 -21 -30 -47 -57 -27 -27 -74 -80 -106 -118 -76 -92 -161 -190 -203 -237 -19 -21 -34 -44 -34 -52 0 -7 -3 -15 -7 -17 -10 -4 -83 -111 -83 -120 0 -4 -19 -35 -42 -70 -48 -71 -64 -96 -74 -118 -4 -8 -20 -31 -36 -51 -15 -20 -28 -44 -28 -52 0 -8 -7 -17 -15 -21 -8 -3 -15 -15 -15 -26 0 -11 -7 -23 -15 -26 -8 -4 -15 -16 -15 -29 0 -13 -7 -25 -15 -29 -8 -3 -15 -14 -15 -25 0 -10 -7 -21 -15 -25 -8 -3 -15 -16 -15 -29 0 -14 -7 -30 -15 -37 -8 -7 -15 -18 -15 -25 0 -7 -7 -18 -16 -26 -10 -8 -14 -23 -12 -40 3 -20 0 -29 -14 -32 -10 -3 -18 -14 -18 -25 0 -11 -6 -33 -14 -49 -20 -41 -33 -73 -47 -118 -6 -22 -15 -44 -20 -49 -5 -6 -9 -24 -9 -42 0 -17 -7 -37 -15 -44 -8 -7 -15 -24 -15 -39 0 -14 -7 -35 -15 -45 -8 -11 -15 -32 -15 -47 0 -14 -7 -32 -15 -39 -8 -7 -15 -27 -15 -44 0 -18 -7 -41 -15 -52 -8 -10 -15 -35 -15 -55 0 -20 -7 -42 -15 -49 -9 -8 -15 -30 -15 -60 0 -30 -6 -52 -15 -60 -9 -8 -15 -30 -15 -59 0 -25 -7 -55 -15 -65 -9 -12 -15 -42 -15 -75 -1 -33 -7 -64 -15 -75 -10 -14 -15 -45 -15 -100 -1 -51 -6 -90 -15 -106 -10 -18 -14 -61 -15 -150 0 -69 -5 -141 -11 -160 -17 -57 -23 -305 -9 -390 7 -41 15 -140 19 -220 3 -86 11 -154 19 -167 7 -12 12 -56 12 -100 0 -54 5 -85 15 -99 8 -11 14 -42 15 -75 0 -33 6 -63 15 -75 8 -10 15 -40 15 -65 0 -25 7 -54 15 -65 8 -10 15 -38 15 -60 0 -24 6 -47 15 -54 8 -7 15 -29 15 -49 0 -20 7 -45 15 -55 8 -11 15 -34 15 -52 0 -17 7 -37 15 -44 8 -7 15 -27 15 -44 0 -17 7 -40 15 -50 8 -11 15 -29 15 -41 0 -12 5 -26 11 -32 6 -6 14 -26 19 -44 11 -40 38 -124 52 -159 22 -53 40 -96 54 -123 8 -16 14 -37 14 -47 0 -10 4 -22 10 -25 5 -3 22 -31 36 -60 14 -30 29 -57 35 -60 5 -4 9 -15 9 -26 0 -11 7 -22 15 -25 8 -4 15 -17 15 -30 0 -14 7 -27 15 -30 8 -4 15 -15 15 -25 0 -11 7 -22 15 -25 8 -4 15 -13 15 -21 0 -8 13 -32 30 -53 16 -21 30 -45 30 -53 0 -9 6 -20 13 -24 6 -4 17 -17 24 -28 7 -11 31 -51 55 -88 24 -37 48 -76 53 -85 6 -9 23 -36 38 -59 15 -24 27 -47 27 -52 0 -5 4 -11 9 -13 5 -2 37 -37 72 -78 34 -41 92 -109 129 -150 37 -41 78 -88 91 -105 13 -16 39 -45 56 -63 18 -19 33 -36 33 -39 0 -10 129 -133 140 -133 5 0 10 -4 10 -9 0 -14 219 -196 235 -195 7 1 11 -4 9 -10 -7 -18 177 -176 205 -176 6 0 26 -14 44 -30 19 -17 42 -30 51 -30 9 0 16 -4 16 -8 0 -5 22 -21 50 -36 27 -15 50 -31 50 -35 0 -4 20 -18 45 -30 25 -12 45 -27 45 -32 0 -5 9 -9 20 -9 11 0 20 -5 20 -10 0 -6 10 -15 23 -20 12 -6 36 -19 52 -30 17 -11 36 -22 43 -25 6 -3 18 -7 25 -10 6 -3 26 -14 42 -25 17 -11 36 -22 43 -25 6 -3 18 -7 25 -10 6 -3 26 -14 42 -25 17 -11 37 -23 45 -26 72 -29 88 -37 112 -50 14 -7 34 -14 45 -14 10 0 42 -11 71 -25 28 -13 68 -27 87 -31 19 -3 39 -12 46 -20 6 -8 19 -14 28 -14 9 0 29 -7 45 -15 15 -8 41 -15 56 -15 16 0 30 -7 34 -15 3 -8 18 -15 33 -15 15 0 37 -7 47 -15 11 -8 36 -15 57 -15 20 0 42 -7 49 -15 7 -8 27 -15 44 -15 18 0 41 -7 52 -15 10 -8 40 -15 65 -15 29 0 51 -6 59 -15 7 -9 30 -15 54 -15 22 -1 52 -7 66 -15 14 -8 52 -15 85 -15 36 0 68 -6 79 -15 13 -10 44 -15 93 -15 44 0 85 -6 101 -14 20 -10 84 -15 249 -17 160 -3 225 -7 235 -17 16 -16 100 -16 116 1 10 9 75 13 235 16 165 2 229 7 249 17 16 8 57 14 101 14 49 0 80 5 93 15 12 9 42 14 80 15 37 0 68 6 80 15 10 8 40 15 65 15 29 0 51 6 59 15 8 9 30 15 60 15 30 0 52 6 60 15 7 9 29 15 52 15 25 0 41 5 44 15 4 10 20 15 49 15 26 0 47 6 55 15 7 8 25 15 40 15 15 0 33 7 40 15 7 8 24 15 39 15 14 1 37 7 51 15 14 8 35 14 46 15 12 0 27 7 34 15 7 8 20 15 29 15 9 0 43 12 76 26 33 14 79 30 103 36 23 5 42 14 42 19 0 5 8 9 18 9 10 0 27 7 38 15 10 8 29 15 42 15 12 0 25 7 28 15 4 8 14 15 24 15 10 0 23 7 30 15 7 8 21 15 32 15 10 0 21 7 24 15 4 8 14 15 24 15 10 0 23 7 30 15 7 8 21 15 31 15 10 0 22 6 26 13 4 8 15 17 23 20 8 4 29 16 45 27 17 11 37 23 45 27 24 11 104 65 115 77 6 6 31 22 58 36 26 13 47 28 47 32 0 5 6 8 13 8 8 0 25 10 38 21 13 12 38 27 54 34 17 7 42 24 56 37 14 13 48 42 75 63 27 22 58 49 69 60 11 11 70 63 130 115 61 52 131 115 156 140 25 25 57 54 70 66 13 11 35 34 49 50 88 103 164 190 169 194 4 3 37 41 75 85 38 44 82 96 98 115 17 19 36 46 41 60 6 14 23 41 37 60 36 50 50 73 56 93 4 9 10 17 15 17 5 0 14 10 19 23 10 23 31 58 40 67 12 12 50 70 50 76 0 3 14 23 30 44 17 21 30 45 30 53 0 8 7 17 15 21 8 3 15 14 15 24 0 11 7 25 15 32 8 7 15 21 15 31 0 11 4 19 9 19 5 0 14 12 20 28 6 15 15 34 20 42 15 24 68 142 76 170 4 14 18 48 31 77 13 28 24 60 24 71 0 11 7 25 15 32 8 7 15 22 15 34 0 11 7 30 15 40 8 11 15 30 15 42 0 12 7 27 15 34 8 7 15 24 15 39 0 14 7 35 15 45 8 11 15 34 15 52 0 19 6 34 15 38 10 3 15 19 15 43 0 21 7 47 15 57 8 11 15 34 15 52 0 17 7 37 15 44 9 7 15 29 15 54 0 23 7 51 15 62 8 10 15 39 15 64 0 25 7 54 15 64 10 13 15 43 15 81 0 35 5 66 13 73 7 8 14 54 17 120 5 99 7 108 28 117 l22 10 0 497 c0 431 -2 498 -15 498 -25 0 -35 36 -35 127 0 63 -4 95 -15 109 -9 12 -14 42 -15 80 0 37 -6 68 -15 80 -8 10 -15 40 -15 65 0 29 -6 51 -15 59 -9 7 -15 29 -15 54 0 23 -7 51 -15 62 -8 10 -15 33 -15 50 0 16 -7 39 -15 50 -8 10 -15 35 -15 55 0 20 -7 42 -15 49 -8 7 -15 24 -15 39 0 14 -7 35 -15 45 -8 11 -15 33 -15 48 0 16 -7 31 -15 34 -8 4 -15 18 -15 33 0 15 -7 36 -15 47 -8 10 -15 29 -15 41 0 12 -4 24 -9 27 -5 3 -12 18 -16 33 -3 15 -17 50 -29 78 -13 27 -29 68 -36 90 -7 22 -24 60 -37 84 -12 24 -23 50 -23 56 0 7 -7 18 -15 25 -8 7 -15 21 -15 32 0 10 -7 21 -15 24 -8 4 -15 14 -15 24 0 10 -7 23 -15 30 -8 7 -15 20 -15 30 0 10 -7 20 -15 24 -8 3 -15 13 -15 22 0 9 -13 33 -30 54 -16 21 -30 41 -30 44 0 9 -43 70 -52 74 -5 2 -8 8 -8 13 0 9 -36 65 -50 79 -3 3 -14 22 -25 44 -11 21 -26 40 -32 43 -7 3 -13 9 -13 14 0 4 -13 28 -30 52 -16 25 -30 48 -30 52 0 4 -15 24 -32 45 -18 20 -58 65 -88 100 -30 35 -62 71 -70 80 -8 8 -44 49 -80 90 -112 130 -243 257 -428 416 -19 16 -51 46 -73 67 -21 20 -42 37 -47 37 -4 0 -32 23 -62 51 -30 28 -64 55 -75 60 -11 5 -29 15 -39 21 -101 67 -153 98 -163 98 -7 0 -13 4 -13 9 0 8 -76 61 -120 84 -8 4 -28 16 -45 27 -16 11 -40 24 -52 30 -13 5 -23 14 -23 20 0 5 -8 10 -19 10 -10 0 -24 7 -31 15 -7 8 -20 15 -30 15 -10 0 -20 7 -24 15 -3 8 -12 15 -20 15 -16 0 -73 29 -94 48 -7 6 -24 12 -38 12 -13 0 -24 4 -24 9 0 5 -28 19 -62 31 -35 13 -68 27 -73 31 -6 4 -42 17 -80 29 -68 22 -111 38 -168 66 -16 8 -41 14 -57 14 -15 0 -33 7 -40 15 -7 8 -25 15 -40 15 -15 0 -33 7 -40 15 -7 8 -29 15 -50 15 -21 0 -43 7 -50 15 -7 8 -29 15 -50 15 -21 0 -43 7 -50 15 -8 9 -30 15 -59 15 -25 0 -55 7 -65 15 -11 8 -38 15 -60 15 -23 0 -50 7 -60 15 -12 9 -43 15 -75 15 -31 1 -67 7 -81 15 -16 9 -55 14 -106 15 -50 0 -85 5 -92 13 -9 8 -78 14 -240 18 -125 3 -235 9 -244 13 -10 5 -18 14 -18 22 0 10 -12 14 -40 14 -28 0 -40 -4 -40 -14z m585 -1854 c17 -6 62 -16 100 -23 39 -6 94 -22 124 -35 29 -13 62 -24 72 -24 11 0 19 -4 19 -9 0 -5 24 -21 53 -36 28 -14 66 -35 82 -45 17 -11 37 -23 45 -27 18 -8 20 -10 82 -62 26 -22 56 -45 65 -53 10 -7 43 -42 73 -78 30 -36 58 -66 63 -68 4 -2 7 -12 7 -23 0 -10 5 -19 11 -19 5 0 15 -13 20 -30 6 -16 14 -30 19 -30 13 0 21 -99 10 -120 -12 -22 -73 -29 -85 -9 -4 5 -17 14 -28 20 -31 13 -57 30 -95 62 -18 15 -38 27 -43 27 -6 0 -28 14 -49 30 -21 17 -45 30 -53 30 -8 0 -17 7 -21 15 -3 8 -12 15 -19 15 -8 0 -20 7 -27 15 -7 8 -20 15 -30 15 -10 0 -23 7 -30 15 -7 8 -20 15 -30 15 -10 0 -20 7 -24 15 -3 9 -18 15 -39 15 -19 0 -40 7 -47 15 -7 8 -25 15 -41 15 -16 0 -37 4 -47 9 -19 10 -178 38 -262 46 -30 3 -81 7 -113 10 -79 7 -297 -12 -416 -36 -165 -34 -172 -36 -184 -48 -6 -6 -25 -11 -43 -11 -17 0 -37 -7 -44 -15 -7 -8 -23 -15 -37 -15 -13 0 -26 -7 -29 -15 -4 -8 -16 -15 -28 -15 -12 0 -27 -5 -33 -11 -14 -14 -50 -35 -85 -50 -16 -6 -28 -14 -28 -19 0 -4 -8 -10 -17 -14 -22 -7 -46 -22 -94 -58 -20 -16 -40 -28 -44 -28 -11 0 -166 -120 -243 -189 -41 -36 -119 -115 -174 -175 -55 -61 -117 -130 -139 -153 -21 -23 -39 -46 -39 -52 0 -6 -4 -11 -9 -11 -5 0 -12 -8 -15 -17 -3 -10 -16 -29 -29 -43 -13 -14 -40 -56 -61 -95 -21 -38 -45 -78 -53 -87 -9 -10 -13 -26 -10 -37 3 -12 -1 -21 -12 -24 -15 -4 -81 -120 -81 -143 0 -7 -7 -14 -15 -18 -8 -3 -15 -16 -15 -30 0 -13 -7 -26 -15 -30 -8 -3 -15 -14 -15 -24 0 -11 -7 -25 -15 -32 -8 -7 -15 -23 -15 -35 0 -12 -7 -28 -15 -35 -8 -7 -15 -23 -15 -35 0 -12 -7 -28 -15 -35 -8 -7 -15 -25 -15 -40 0 -16 -7 -30 -15 -34 -8 -3 -15 -16 -15 -30 0 -13 -7 -37 -15 -52 -8 -16 -15 -39 -15 -51 0 -12 -4 -25 -10 -28 -5 -3 -10 -17 -10 -30 0 -13 -6 -39 -14 -57 -8 -18 -24 -71 -36 -118 -39 -154 -77 -211 -117 -178 -19 16 -17 187 2 212 10 13 15 44 15 90 1 47 6 78 15 90 8 11 15 38 15 60 0 23 7 50 15 60 8 11 15 38 15 60 0 23 7 50 15 60 8 11 15 31 15 45 0 14 7 35 15 45 8 11 15 30 15 42 0 12 7 27 15 34 8 7 15 25 15 40 0 15 7 33 15 40 8 7 15 23 15 35 0 13 6 36 14 52 8 15 19 39 25 53 5 14 19 46 30 72 12 26 21 53 21 60 1 7 12 31 25 53 14 22 27 47 31 55 3 8 10 22 15 30 5 8 20 35 34 60 14 25 34 59 45 75 11 17 23 37 27 45 12 26 77 110 85 110 4 0 8 5 8 10 0 11 9 24 41 58 8 9 30 37 49 62 19 25 40 49 47 53 7 4 13 14 13 22 0 7 3 15 8 17 4 2 31 32 61 68 30 36 77 87 105 114 59 56 240 196 255 196 6 0 14 6 18 13 10 15 88 77 98 77 4 0 24 13 44 28 20 16 43 32 51 35 8 4 22 11 30 16 8 5 22 12 30 15 8 4 29 15 45 26 17 11 37 22 45 25 8 3 28 13 43 21 16 7 35 14 43 14 8 0 17 7 20 15 4 8 14 15 23 15 10 0 49 11 87 24 38 13 107 30 154 36 47 7 105 19 130 26 57 17 538 14 585 -4z m-475 -942 c115 -18 251 -71 296 -115 12 -11 44 -41 72 -67 29 -26 52 -49 52 -52 0 -3 14 -20 30 -38 17 -18 30 -40 30 -49 0 -9 7 -19 15 -23 8 -3 15 -14 15 -24 0 -11 7 -25 15 -32 8 -7 15 -22 15 -34 0 -11 7 -30 15 -40 8 -11 15 -39 15 -62 0 -24 4 -53 9 -66 11 -30 -11 -244 -27 -260 -7 -7 -12 -22 -12 -34 0 -12 -7 -27 -15 -34 -8 -7 -15 -18 -15 -25 0 -14 -52 -94 -90 -139 -45 -52 -101 -101 -142 -123 -23 -12 -46 -27 -52 -33 -5 -5 -22 -10 -37 -10 -15 0 -32 -7 -39 -15 -7 -8 -27 -15 -44 -15 -18 0 -41 -7 -52 -15 -27 -21 -241 -21 -268 0 -11 8 -35 15 -54 15 -18 0 -40 7 -48 15 -9 8 -24 15 -34 15 -33 0 -133 67 -198 133 -61 62 -79 86 -101 135 -6 12 -15 22 -21 22 -5 0 -10 10 -10 23 0 13 -7 32 -15 43 -8 10 -15 29 -15 41 0 12 -7 28 -15 37 -22 21 -21 292 0 320 8 11 15 32 15 47 0 14 7 32 15 39 8 7 15 23 15 37 0 13 7 26 15 29 8 4 15 13 15 20 0 8 7 17 15 20 8 4 15 15 15 25 0 10 5 19 10 19 6 0 14 8 17 17 6 16 100 112 134 139 36 27 110 65 155 80 134 43 200 50 304 34z m390 -2639 c-1 -930 -3 -1079 -15 -1095 -8 -11 -15 -40 -15 -65 0 -25 -7 -55 -15 -65 -8 -11 -15 -28 -15 -38 0 -11 -11 -31 -25 -46 -14 -15 -25 -31 -25 -36 0 -14 -91 -96 -106 -96 -6 0 -17 -7 -24 -15 -7 -8 -22 -15 -34 -15 -12 0 -31 -7 -42 -15 -27 -21 -231 -21 -258 0 -11 8 -30 15 -43 15 -13 0 -26 7 -29 15 -4 8 -14 15 -24 15 -21 0 -160 136 -160 157 0 3 -7 19 -15 36 -8 18 -22 64 -31 102 -15 63 -17 165 -19 1040 -1 534 2 978 6 987 8 14 32 17 151 22 202 7 315 19 330 34 6 6 28 12 48 12 20 0 45 7 56 15 10 8 31 15 45 15 15 0 32 7 39 15 7 8 20 15 30 15 10 0 23 7 30 15 7 8 20 15 30 15 10 0 23 7 30 15 7 8 23 15 37 15 13 0 26 7 29 15 5 12 10 13 20 4 12 -10 14 -183 14 -1088z"/> </g> </svg> 