<?xml version="1.0" standalone="no"?>
<!DOCTYPE svg PUBLIC "-//W3C//DTD SVG 20010904//EN"
 "http://www.w3.org/TR/2001/REC-SVG-20010904/DTD/svg10.dtd">
<svg version="1.0" xmlns="http://www.w3.org/2000/svg"
 width="900.000000pt" height="855.000000pt" viewBox="0 0 900.000000 855.000000"
 preserveAspectRatio="xMidYMid meet">
<metadata>
Created by potrace 1.10, written by Peter Selinger 2001-2011
</metadata>
<g transform="translate(0.000000,855.000000) scale(0.100000,-0.100000)"
fill="000000" stroke="none">
<!-- White circle behind the paths -->
<circle cx="450" cy="430" r="45000" fill="#ffffff" stroke="none"/>
<path d="M0 4275 l0 -4275 4500 0 4500 0 0 4275 0 4275 -4500 0 -4500 0 0
-4275z m4741 3935 c204 -13 370 -41 653 -110 49 -12 99 -26 110 -30 12 -4 48
-16 81 -25 61 -18 96 -30 173 -59 23 -9 61 -23 85 -32 69 -26 185 -78 312
-140 420 -206 809 -497 1135 -848 147 -160 345 -415 426 -549 16 -27 37 -61
46 -75 74 -114 228 -420 283 -562 9 -25 23 -57 31 -72 8 -14 14 -34 14 -45 0
-10 7 -27 15 -37 8 -11 15 -28 15 -38 0 -9 6 -32 14 -50 12 -30 22 -61 61
-198 18 -61 36 -137 45 -185 4 -22 12 -60 18 -85 14 -58 37 -204 57 -355 18
-141 21 -682 4 -784 -5 -35 -14 -103 -19 -150 -4 -47 -14 -113 -20 -146 -36
-188 -60 -295 -85 -376 -8 -26 -15 -54 -15 -63 0 -8 -6 -30 -14 -48 -7 -18
-21 -58 -30 -88 -9 -30 -23 -72 -31 -92 -8 -21 -22 -56 -30 -78 -33 -89 -50
-129 -92 -220 -64 -138 -128 -262 -186 -360 -36 -61 -204 -316 -218 -331 -8
-8 -26 -32 -42 -55 -15 -22 -35 -49 -45 -60 -9 -10 -37 -44 -62 -74 -88 -108
-248 -274 -401 -416 -114 -106 -338 -277 -474 -364 -212 -134 -362 -216 -555
-302 -122 -55 -328 -132 -435 -163 -33 -9 -71 -22 -85 -27 -14 -5 -45 -14 -70
-19 -25 -4 -72 -15 -105 -23 -130 -31 -153 -35 -245 -50 -252 -40 -346 -47
-645 -47 -304 0 -498 14 -642 47 -34 8 -77 14 -94 14 -18 0 -55 6 -83 14 -72
20 -145 37 -191 46 -22 4 -51 12 -65 17 -14 6 -52 18 -85 28 -33 9 -75 23 -93
31 -18 8 -39 14 -47 14 -14 0 -66 20 -118 46 -16 8 -35 14 -42 14 -7 0 -26 6
-42 14 -29 14 -87 40 -113 50 -8 3 -22 10 -30 15 -8 5 -53 28 -100 50 -47 22
-112 56 -145 74 -33 18 -76 42 -95 53 -37 21 -49 28 -180 113 -75 48 -229 162
-360 267 -152 121 -417 394 -568 585 -96 122 -195 261 -219 309 -5 8 -26 42
-48 75 -39 60 -61 99 -117 205 -16 30 -33 62 -38 70 -13 20 -82 171 -110 240
-12 30 -36 89 -52 130 -16 41 -36 90 -44 108 -8 18 -14 41 -14 52 0 11 -6 34
-14 52 -19 45 -36 107 -90 326 -8 31 -21 98 -30 147 -8 50 -20 119 -27 155
-22 124 -37 396 -34 600 3 204 20 474 31 491 3 5 9 39 14 77 11 90 28 186 45
247 15 58 34 135 45 185 8 33 11 46 40 130 6 19 16 52 21 73 5 21 13 45 18 55
5 9 17 37 26 62 9 25 23 60 31 78 8 18 14 37 14 43 0 11 63 147 126 274 60
121 125 238 165 298 22 32 39 60 39 62 0 15 195 280 313 424 190 233 625 616
860 757 62 37 74 44 122 74 23 14 50 30 60 37 22 13 139 76 195 104 137 69
382 172 490 205 30 9 71 23 90 29 67 24 221 65 330 88 419 89 708 108 1181 77z"/>
<path d="M5530 6515 c-19 -7 -62 -21 -95 -30 -33 -10 -78 -24 -100 -30 -22 -7
-67 -20 -100 -30 -60 -17 -126 -37 -200 -60 -22 -6 -65 -19 -95 -28 -187 -55
-209 -69 -217 -138 -5 -45 0 -71 37 -194 45 -152 51 -172 66 -220 8 -27 19
-66 24 -85 4 -19 13 -48 18 -65 6 -16 18 -57 27 -90 10 -33 23 -78 30 -100 7
-22 20 -67 30 -100 9 -33 23 -78 30 -100 7 -22 20 -69 30 -105 9 -36 23 -80
31 -98 8 -18 14 -41 14 -52 0 -11 6 -37 14 -57 7 -21 21 -65 31 -98 9 -33 23
-78 30 -100 6 -22 19 -66 28 -97 10 -32 24 -84 34 -115 9 -32 22 -76 28 -98 7
-22 21 -67 30 -100 10 -33 24 -80 31 -105 8 -25 34 -115 59 -200 50 -172 71
-243 91 -310 8 -25 27 -92 44 -150 42 -148 60 -209 75 -255 7 -22 20 -67 30
-100 10 -33 24 -80 31 -105 8 -25 27 -92 44 -150 70 -244 81 -270 130 -290 34
-14 96 -9 175 16 60 18 115 34 255 74 121 34 196 57 260 76 25 8 78 23 118 35
50 14 84 32 107 54 31 28 35 39 35 81 0 27 -6 66 -14 89 -8 22 -22 67 -31 100
-10 33 -24 80 -31 105 -8 25 -27 92 -44 150 -33 113 -55 188 -76 260 -8 25
-27 92 -44 150 -41 143 -60 208 -75 255 -6 22 -20 67 -30 100 -9 33 -22 74
-27 90 -6 17 -14 46 -18 65 -5 19 -18 67 -30 105 -11 39 -27 93 -36 120 -16
56 -35 119 -59 198 -9 28 -20 68 -25 87 -5 19 -16 58 -24 85 -9 28 -25 82 -36
120 -24 81 -42 143 -65 218 -9 28 -20 68 -25 87 -4 19 -13 49 -18 65 -6 17
-17 53 -25 80 -25 84 -49 168 -62 210 -7 22 -20 66 -29 98 -29 104 -49 171
-61 212 -7 22 -21 67 -30 100 -10 33 -24 78 -31 100 -7 22 -22 75 -34 118 -28
99 -41 125 -77 148 -33 22 -100 24 -153 4z"/>
<path d="M2093 6416 c-16 -14 -35 -42 -41 -64 -17 -56 -17 -3563 -1 -3613 18
-53 46 -77 104 -89 34 -7 191 -10 451 -8 440 3 438 3 481 67 l23 34 0 1794 c0
1949 3 1835 -55 1881 -27 22 -31 22 -481 22 l-452 0 -29 -24z"/>
<path d="M3445 6405 l-35 -36 0 -1824 0 -1823 25 -30 c40 -47 84 -52 500 -52
416 0 460 5 500 52 l25 30 0 1828 0 1828 -35 31 -36 31 -454 0 -454 0 -36 -35z"/>
<path d="M2082 2443 c-31 -12 -42 -61 -42 -183 0 -116 8 -155 34 -172 6 -4
1051 -8 2322 -8 2226 0 2312 1 2327 18 14 16 17 43 17 170 0 145 -1 152 -22
166 -20 14 -256 16 -2323 15 -1265 0 -2306 -3 -2313 -6z"/>
</g>
</svg>
